<svg width="967" height="163" viewBox="0 0 967 163" fill="none" xmlns="http://www.w3.org/2000/svg">
<path d="M0 62.3866C0 67.7013 7.15904 79.0747 12.4482 80.4034C17.7373 81.7321 32.3759 78.809 35.3678 74.2384C38.3596 69.6677 38.5199 54.946 35.0472 50.6942C31.9925 48.3629 28.4996 46.6634 24.7744 45.6958C21.0491 44.7283 17.1669 44.5123 13.3564 45.0606C9.99119 46.8003 7.05086 49.2535 4.74301 52.2473C2.43516 55.241 0.816055 58.7022 0 62.3866H0Z" fill="#026166"/>
<path d="M12.9886 115.972C10.7108 130.148 45.5648 159.215 57.9064 152.297C70.2479 145.38 77.0217 107.996 65.8436 98.8381C54.6656 89.6801 15.1398 101.79 12.9886 115.972Z" fill="#4AB5BD"/>
<path d="M130.674 50.2266C129.951 55.9422 96.2403 79.2142 90.0684 79.1425C83.8965 79.0709 56.9483 52.5204 57.6633 45.213C58.3783 37.9057 88.1777 9.32518 94.5457 9.35366C100.914 9.38214 131.554 43.7001 130.674 50.2266Z" fill="#ED3A3A"/>
<path d="M297.765 100.991C297.592 90.8892 300.218 80.9366 305.35 72.2339C310.358 63.7189 317.66 56.7836 326.422 52.2198C336.163 47.1252 347.039 44.588 358.029 44.8462C369.027 44.5119 379.921 47.0536 389.636 52.2198C398.152 56.8224 405.172 63.7676 409.864 72.2339C414.719 81.031 417.189 90.9446 417.028 100.991C417.172 111.102 414.705 121.08 409.864 129.959C405.152 138.464 398.142 145.472 389.636 150.183C379.921 155.359 369.033 157.935 358.029 157.662C347.352 157.875 336.775 155.565 327.159 150.921C318.411 146.629 311.093 139.898 306.088 131.539C300.566 122.311 297.687 111.744 297.765 100.991V100.991ZM331.69 100.991C331.603 106.107 332.76 111.168 335.061 115.738C337.153 119.952 340.268 123.573 344.122 126.272C347.972 128.788 352.481 130.107 357.081 130.064C361.922 130.197 366.693 128.876 370.777 126.272C374.78 123.744 378.021 120.176 380.154 115.949C382.215 111.308 383.257 106.279 383.209 101.202C383.286 96.0872 382.243 91.0179 380.154 86.349C378.182 82.0888 375.086 78.4469 371.198 75.8153C367.115 73.211 362.344 71.8902 357.502 72.0232C352.903 71.9797 348.393 73.2993 344.543 75.8153C340.68 78.5035 337.563 82.1279 335.482 86.349C333.001 90.945 331.698 96.0842 331.69 101.307V100.991Z" fill="black"/>
<path d="M461.385 45.7928L464.44 69.3883V67.7029C468.069 61.1257 473.424 55.6627 479.927 51.9023C487.375 47.6035 495.882 45.4863 504.475 45.7928C513.517 45.4814 522.349 48.5624 529.234 54.4304C532.552 57.1952 535.217 60.6594 537.038 64.5748C538.86 68.4901 539.793 72.7598 539.77 77.0779V155.133H505.108V89.5077C505.131 85.4831 503.835 81.5616 501.42 78.3419C499.949 76.7705 498.144 75.5482 496.139 74.7645C494.133 73.9807 491.978 73.6554 489.831 73.8125C484.905 73.7127 480.125 75.4816 476.451 78.7633C472.363 82.6098 469.318 87.43 467.601 92.7731C465.395 99.1383 464.326 105.841 464.44 112.576V154.711H431.042V45.7928H461.385Z" fill="black"/>
<path d="M571.376 155.134V73.8134H555.783V47.1631H571.376V41.1589C570.939 30.3033 574.714 19.6987 581.911 11.5592C591.349 3.48688 603.541 -0.626871 615.941 0.0774334C620.386 0.157865 624.806 0.758875 629.111 1.86816C633.704 2.93137 638.038 4.90109 641.859 7.6617L629.427 29.9932C628.182 28.2974 626.457 27.0133 624.475 26.3064C622.747 25.7025 620.933 25.3824 619.102 25.3583C617.146 25.2602 615.192 25.5859 613.373 26.3132C611.555 27.0404 609.915 28.152 608.566 29.5718C607.095 31.3023 605.998 33.319 605.345 35.4946C604.692 37.6703 604.498 39.9576 604.774 42.2123V47.3738H633.009V73.8134H604.774V155.028L571.376 155.134Z" fill="black"/>
<path d="M698.225 158.082C687.27 158.349 676.418 155.926 666.618 151.025C658.18 146.533 651.226 139.69 646.6 131.327C641.922 122.399 639.567 112.436 639.752 102.359C639.357 92.3122 641.961 82.3752 647.232 73.8126C652.473 65.486 659.718 58.6052 668.304 53.7986C677.527 48.731 687.912 46.1533 698.436 46.3196C711.812 45.8034 724.884 50.3983 734.994 59.1707C745.465 69.0841 752.231 82.2787 754.169 96.5654L673.571 122.162L666.196 104.15L724.564 84.3463L717.294 87.5064C715.969 83.4585 713.608 79.8273 710.446 76.9727C706.503 73.5916 701.41 71.8566 696.223 72.1272C691.694 72.0343 687.234 73.2406 683.37 75.6033C679.581 77.861 676.596 81.2506 674.836 85.2943C672.711 89.9145 671.666 94.9577 671.78 100.042C671.598 105.538 672.755 110.997 675.152 115.947C677.446 120.495 681.139 124.187 685.687 126.481C689.942 128.709 694.688 129.832 699.489 129.747C703.086 129.751 706.655 129.108 710.025 127.851C717.096 124.971 722.945 119.719 726.566 112.998L753.537 118.686C750.702 127.204 745.908 134.939 739.54 141.269C733.172 147.599 725.409 152.347 716.873 155.133C710.8 156.871 704.538 157.861 698.225 158.082V158.082Z" fill="black"/>
<path d="M777.874 0.0771484H811.272V47.1628H833.186V73.8131H811.272V155.028H777.874V73.8131H763.651V47.1628H777.874V0.0771484Z" fill="black"/>
<path d="M860.685 0.0771484H893.977V47.1628H916.313V73.8131H893.977V155.028H860.685V73.8131H846.356V47.1628H860.685V0.0771484Z" fill="black"/>
<path d="M933.065 15.5617C933.081 13.5204 933.564 11.5099 934.477 9.68409C935.39 7.85827 936.709 6.26558 938.332 5.02799C941.43 2.03556 945.513 0.275325 949.816 0.0771484C953.99 0.114755 958.004 1.68995 961.089 4.50131C962.721 5.83619 964.026 7.52717 964.902 9.44446C965.779 11.3618 966.205 13.4544 966.147 15.5617C966.205 17.669 965.779 19.7616 964.902 21.6789C964.026 23.5962 962.721 25.2872 961.089 26.6221C957.958 29.3319 953.958 30.8272 949.816 30.8356C945.687 30.7646 941.707 29.2771 938.543 26.6221C936.809 25.3538 935.405 23.6865 934.452 21.7613C933.498 19.8361 933.022 17.7096 933.065 15.5617V15.5617ZM933.065 46.2148H966.252V155.133H933.486L933.065 46.2148Z" fill="black"/>
<path d="M190.512 155.133V0.0771484H224.016V155.133H190.512ZM206.316 133.539L201.048 99.3047L260.047 45.3721H296.817L206.316 133.539ZM297.765 155.133H259.731L226.333 107.31L249.933 86.2429" fill="black"/>
</svg>
